<svg id="Layer_1" data-name="Layer 1" xmlns="http://www.w3.org/2000/svg" viewBox="0 0 576.09 179.89"><defs><style>.cls-1{font-size:114.69px;font-family:BookAntiqua-Bold, Book Antiqua;font-weight:700;}.cls-1,.cls-2{fill:#057aff;}.cls-3{fill:#a3ceff;}</style></defs><text class="cls-1" transform="translate(0 141.2)">Tomecs</text><path class="cls-2" d="M562.47,98.83c-5.21-2.78-12.93-4.87-19.18-1.24-1.4.81-6.34,3.6-8.89,6.87-2.83,3.63-5.84,5.8-8.71,6.12s-75.87,1.2-77.07,1.17c-3.24-.1-5.61-2.79-7.43-4.87a22.64,22.64,0,0,0-16.26-8.09c-4.94-.36-12.82.62-15.45,6.33a8,8,0,0,0,1.48.67c.76-1.47,3-4.63,8.56-4.8,7.22-.22,13.73,1.45,17.69,6,4.77,5.48,6.31,12.4,2.27,19.45-2.73,4.76-8.11,11.25-15.33,10.6-9.78-.87-16.48-4.92-19.21-13.5-.43-.12-1.36-.26-1.36-.26s.43,10.18,14.12,14.55c9.89,3.16,15.67-.94,19.72-5.21,4.54-4.8,7.42-5.13,10.89-5.18,8.69-.11,73.29-.73,75.18-.46s4.6,1.2,8.38,5.78c3.38,4.11,9,7.83,13,8.87,16.6,4.29,24-5.87,24-5.87s-.79-.2-2-.55c-.29.23-.56.47-.87.69-9,6.29-17.65,6.09-27.19-.54-6.79-4.72-6.4-14-5.31-20.2,1.62-9.11,7.45-14.83,15.63-16.14,6.78-1.09,14.9,2.92,21,8.39,2.85,2.53,3.64,5.1,3.68,7.14.89.27,2.24.74,2.24.74C577,107.85,567.68,101.61,562.47,98.83Z"/><path class="cls-3" d="M424.15,137c7.22.65,12.6-5.84,15.33-10.6,4-7,2.5-14-2.27-19.45-4-4.55-10.47-6.22-17.69-6-5.52.17-7.8,3.33-8.56,4.8,2.59.78,8.78,2.69,12,3.73,2.51.81,3.06,5.65,1.47,10.31-1.87,5.48-3.94,7.16-6.14,6.86a110.53,110.53,0,0,1-13.37-3.15C407.67,132.12,414.37,136.17,424.15,137Z"/><path class="cls-3" d="M570.1,107.41c-6.14-5.47-14.26-9.48-21-8.39-8.18,1.31-14,7-15.63,16.14-1.09,6.16-1.48,15.48,5.31,20.2,9.54,6.63,18.2,6.83,27.19.54.31-.22.58-.46.87-.69-3.76-1-11.72-3.28-15.07-4.81-3.55-1.63-3.38-4.82-1.57-11.13,2-7,5-9.59,7.68-9,4.66,1,12.68,3.33,15.94,4.31C573.74,112.51,573,109.94,570.1,107.41Z"/><path class="cls-3" d="M518.26,119.3a4.94,4.94,0,0,1-4.93,5l-53.75.24a5,5,0,0,1-5-4.93h0a5,5,0,0,1,4.94-5l53.74-.24a5,5,0,0,1,5,4.93Z"/><polygon class="cls-2" points="542.18 81.58 431.5 81.58 430.37 71.28 543.3 71.28 542.18 81.58"/><polygon class="cls-2" points="502.8 25.54 486.84 43.77 470.88 25.54 486.84 0 502.8 25.54"/><path class="cls-2" d="M511.76,72.26c-26.28-27.24-16.08-41.7-16.08-41.7H478S488.2,45,461.92,72.26Z"/><polygon class="cls-2" points="468.54 34.62 456.83 48.77 443.54 34.62 454.96 15.14 468.54 34.62"/><path class="cls-2" d="M478,71.28C455.81,49.74,463.19,38.5,463.19,38.5H449.32S458,49.74,438.21,71.28Z"/><path class="cls-2" d="M433.73,38.5a8.68,8.68,0,0,0-.89,3.9l6-7.78L424.24,15.14l2.55,23.36Z"/><path class="cls-2" d="M432.84,42.4l-4.93,6.37,2.46,22.51h19.88C435,57.2,432.65,47.45,432.84,42.4Z"/><path class="cls-2" d="M426.79,38.5l1.12,10.27,4.93-6.37a8.68,8.68,0,0,1,.89-3.9Z"/><polygon class="cls-2" points="505.14 34.62 516.85 48.77 530.14 34.62 518.72 15.14 505.14 34.62"/><path class="cls-2" d="M495.72,71.28c22.15-21.54,14.77-32.78,14.77-32.78h13.86s-8.63,11.24,11.12,32.78Z"/><path class="cls-2" d="M540,38.5a8.78,8.78,0,0,1,.88,3.9l-6-7.78,14.63-19.48L546.88,38.5Z"/><path class="cls-2" d="M540.83,42.4l4.93,6.37L543.3,71.28H523.43C538.66,57.2,541,47.45,540.83,42.4Z"/><path class="cls-2" d="M546.88,38.5l-1.12,10.27-4.93-6.37a8.78,8.78,0,0,0-.88-3.9Z"/><rect class="cls-2" x="431.53" y="85.28" width="110.62" height="7.41"/></svg>