<svg id="Layer_1" data-name="Layer 1" xmlns="http://www.w3.org/2000/svg" viewBox="0 0 448.06 364.07"><defs><style>.cls-1{fill:#057aff;}.cls-2{fill:#a3ceff;}</style></defs><path class="cls-1" d="M412.67,250.18c-13.54-7.22-33.58-12.67-49.81-3.23-3.63,2.1-16.46,9.34-23.1,17.85-7.34,9.42-15.15,15.06-22.61,15.88s-197.06,3.13-200.18,3c-8.41-.26-14.58-7.25-19.28-12.66-13.9-15.94-29.43-20.08-42.26-21s-33.27,1.63-40.11,16.45a20.89,20.89,0,0,0,3.83,1.75c2-3.82,7.9-12,22.26-12.47,18.73-.57,35.64,3.76,45.92,15.58,12.39,14.24,16.41,32.21,5.9,50.51-7.09,12.36-21,29.22-39.82,27.55C28,347.16,10.63,336.62,3.53,314.35,2.41,314,0,313.66,0,313.66s1.1,26.46,36.66,37.8c25.7,8.21,40.7-2.44,51.22-13.54,11.8-12.46,19.27-13.32,28.29-13.44,22.56-.29,190.36-1.89,195.26-1.2s11.95,3.1,21.76,15c8.78,10.67,23.25,20.34,33.63,23,43.12,11.15,62.39-15.24,62.39-15.24s-2-.54-5.29-1.43c-.75.6-1.45,1.22-2.27,1.79C398.32,362.79,375.83,362.27,351,345c-17.62-12.26-16.61-36.46-13.78-52.45,4.19-23.68,19.33-38.53,40.57-41.93,17.62-2.82,38.71,7.59,54.67,21.78C439.89,279,441.94,285.7,442,291c2.33.7,5.83,1.92,5.83,1.92C450.4,273.6,426.22,257.39,412.67,250.18Z"/><path class="cls-2" d="M53.41,349.42c18.77,1.67,32.73-15.19,39.82-27.55,10.51-18.3,6.49-36.27-5.9-50.51-10.28-11.82-27.19-16.15-45.92-15.58-14.36.45-20.27,8.65-22.26,12.47,6.73,2,22.81,7,31.23,9.68,6.52,2.09,8,14.68,3.82,26.78-4.87,14.23-10.24,18.59-16,17.82C26.56,320.94,9.09,316,3.53,314.35,10.63,336.62,28,347.16,53.41,349.42Z"/><path class="cls-2" d="M432.5,272.44c-16-14.19-37.05-24.6-54.67-21.78-21.24,3.4-36.38,18.25-40.57,41.93-2.83,16-3.84,40.19,13.78,52.45,24.79,17.23,47.28,17.75,70.61,1.41.82-.57,1.52-1.19,2.27-1.79-9.78-2.67-30.44-8.51-39.15-12.51-9.22-4.23-8.76-12.51-4.07-28.91,5.18-18.1,12.85-24.9,19.94-23.43,12.12,2.53,32.94,8.65,41.4,11.19C441.94,285.7,439.89,279,432.5,272.44Z"/><path class="cls-2" d="M297.86,303.34A12.88,12.88,0,0,1,285,316.27l-139.59.63a12.89,12.89,0,0,1-12.94-12.82h0a12.88,12.88,0,0,1,12.82-12.93l139.6-.63a12.88,12.88,0,0,1,12.93,12.82Z"/><polygon class="cls-1" points="367.76 211.88 80.3 211.88 77.38 185.15 370.68 185.15 367.76 211.88"/><polygon class="cls-1" points="265.49 66.32 224.03 113.68 182.57 66.32 224.03 0 265.49 66.32"/><path class="cls-1" d="M288.75,187.69C220.5,116.92,247,79.37,247,79.37h-45.9s26.48,37.55-41.77,108.32Z"/><polygon class="cls-1" points="176.5 89.92 146.08 126.67 111.57 89.92 141.22 39.31 176.5 89.92"/><path class="cls-1" d="M201,185.15c-57.51-56-38.34-85.16-38.34-85.16h-36S149,129.2,97.72,185.15Z"/><path class="cls-1" d="M86.08,100s-2,3.39-2.29,10.14L99.44,89.92l-38-50.61L68.07,100Z"/><path class="cls-1" d="M83.79,110.13,71,126.67l6.39,58.48H129C89.44,148.57,83.29,123.23,83.79,110.13Z"/><path class="cls-1" d="M68.07,100,71,126.67l12.8-16.54c.26-6.75,2.29-10.14,2.29-10.14Z"/><polygon class="cls-1" points="271.55 89.92 301.98 126.67 336.49 89.92 306.84 39.31 271.55 89.92"/><path class="cls-1" d="M247.1,185.15c57.52-56,38.35-85.16,38.35-85.16h36s-22.42,29.21,28.87,85.16Z"/><path class="cls-1" d="M362,100s2,3.39,2.3,10.14L348.62,89.92l38-50.61L380,100Z"/><path class="cls-1" d="M364.27,110.13l12.8,16.54-6.39,58.48H319.06C358.62,148.57,364.77,123.23,364.27,110.13Z"/><path class="cls-1" d="M380,100l-2.91,26.68-12.8-16.54C364,103.38,362,100,362,100Z"/><rect class="cls-1" x="80.37" y="221.49" width="287.32" height="19.24"/></svg>